# xmcd
#
# Track frame offsets:
#	150
#	17857
#	36083
#	53502
#	67234
#	86130
#	104597
#	122524
#	136807
#	149512
#	170742
#	184533
#	202375
#	214465
#	229760
#
# Disc length: 3266 seconds
#
# Revision: 3
# Processed by: cddbd v1.5.2PL0 Copyright (c) Steve Scherf et al.
# Submitted via: EasyCDDAExtractor 10.2.0.1
#
DISCID=e90cc00f
DTITLE=Anne Murray - Country Croonin' [cd1]
DYEAR=2002
DGENRE=Country
TTITLE0=Help Me Make It Through The Night
TTITLE1=Someday (You'll Want Me To Want You)
TTITLE2=End Of the World
TTITLE3=Oh Lonesome Me
TTITLE4=I Can't Stop Loving You
TTITLE5=Me And Bobby McGee
TTITLE6=Can't Help Falling in Love with you
TTITLE7=Let It Be Me
TTITLE8=Singing The Blues
TTITLE9=I Really Don't Want to Know
TTITLE10=A Fool Such As I
TTITLE11=Always On My Mind
TTITLE12='Til I Kissed You
TTITLE13=Loving Arms
TTITLE14=Are You Lonesome Tonight
EXTD=
EXTT0=
EXTT1=
EXTT2=
EXTT3=
EXTT4=
EXTT5=
EXTT6=
EXTT7=
EXTT8=
EXTT9=
EXTT10=
EXTT11=
EXTT12=
EXTT13=
EXTT14=
PLAYORDER=
